<svg xmlns="http://www.w3.org/2000/svg" viewBox="0 0 83.69 120.81"><defs><style>.cls-1{fill:#feb8c7;}</style></defs><g id="Layer_2" data-name="Layer 2"><g id="Layer_1-2" data-name="Layer 1"><path class="cls-1" d="M79.76,0H3.93A3.93,3.93,0,0,0,0,3.93V89.31A6.45,6.45,0,0,0,2.76,94.6L38.9,119.89a5.16,5.16,0,0,0,5.89,0L80.93,94.6a6.5,6.5,0,0,0,2.76-5.29V3.93A3.93,3.93,0,0,0,79.76,0ZM26.87,66.6a1.18,1.18,0,0,1-1.18,1.17H19.34a1.17,1.17,0,0,1-1.17-1.17v-20a1.17,1.17,0,0,1,1.17-1.17h6.35a1.18,1.18,0,0,1,1.18,1.17Zm34-1a4.59,4.59,0,0,1-4.5,3.67H42.18a30.17,30.17,0,0,1-3.42-.2l-3.25-.37-5.45-1a.29.29,0,0,1-.1,0,1.52,1.52,0,0,1-1.06-1.47V48.74a1.54,1.54,0,0,1,.79-1.35,11.37,11.37,0,0,0,3.88-3.86L45,25.54a4.24,4.24,0,0,1,7.91,1.25,4.52,4.52,0,0,1,.06.74,3.82,3.82,0,0,1-.1.9,2.37,2.37,0,0,1-.09.36L52.11,31l-1.43,4.59-.48,1.54-.48,1.58,0,.09H61.45a4.44,4.44,0,0,1,4.06,4.46Z"/></g></g></svg>